<svg xmlns="http://www.w3.org/2000/svg" viewBox="0 0 387.78 252.25"><defs><style>.cls-1{fill:#f5f5f5;}.cls-2{fill:#9c56d8;}.cls-3{fill:#263238;}.cls-4{opacity:0.1;}.cls-5,.cls-6,.cls-7{fill:#fff;}.cls-6{opacity:0.6;}.cls-7{opacity:0.2;}</style></defs><title>Asset 1</title><g id="Layer_2" data-name="Layer 2"><g id="Shadow"><ellipse id="_Path_" data-name="&lt;Path&gt;" class="cls-1" cx="193.89" cy="240.93" rx="193.89" ry="11.32"/></g><g id="Question_Marks" data-name="Question Marks"><path class="cls-2" d="M101.5,72.13l-.92-.39A17.9,17.9,0,0,0,102,66.79l1,.11A18.88,18.88,0,0,1,101.5,72.13Zm-.39-11.45A13.34,13.34,0,0,0,90.68,52.9l.16-1A14.29,14.29,0,0,1,102,60.26Z"/><path class="cls-2" d="M95.87,82.19,86,86.67l-.44-1a13,13,0,0,1-1.29-4.33,9.83,9.83,0,0,1,.39-3.64,58.94,58.94,0,0,1,3-6.86q1.32-2.66.67-4.08a3.16,3.16,0,0,0-1.85-1.83,3.92,3.92,0,0,0-2.91.37,4.54,4.54,0,0,0-2.49,2.6c-.43,1.18-.3,2.82.4,5L70.88,76.19a15.07,15.07,0,0,1,0-10.75q2-5,9.22-8.28,5.64-2.56,10.19-1.79a10.75,10.75,0,0,1,8.57,6.34,9,9,0,0,1,.72,4.8,22.82,22.82,0,0,1-2.7,7.26,14.65,14.65,0,0,0-1.78,4.83A7.47,7.47,0,0,0,95.87,82.19Zm-9,7.25,10.53-4.8,4.24,9.29-10.54,4.8Z"/><path class="cls-2" d="M71.53,104.42l-5,6.8-.67-.5a10.45,10.45,0,0,1-2.53-2.47,7.59,7.59,0,0,1-1.11-2.63,43.43,43.43,0,0,1-.58-5.81c-.07-1.54-.44-2.56-1.09-3a2.5,2.5,0,0,0-2-.55,3.12,3.12,0,0,0-1.84,1.36A3.51,3.51,0,0,0,56,100.3a6.14,6.14,0,0,0,2.15,3.23l-6,6.3a11.67,11.67,0,0,1-4.11-7.32q-.56-4.14,3.14-9.14a13.66,13.66,0,0,1,6.26-5.1,8.4,8.4,0,0,1,8.26,1.07,6.92,6.92,0,0,1,2.32,3,18,18,0,0,1,.92,6,11.36,11.36,0,0,0,.62,4A5.68,5.68,0,0,0,71.53,104.42Zm-3.37,8.36,5.36-7.28,6.42,4.73-5.36,7.28Z"/></g><g id="Character"><path class="cls-2" d="M178,237.33a4.49,4.49,0,0,1-4-2.43c-4-7.76-9.07-16.87-18.15-26.73a4.47,4.47,0,0,1-1-4.28c3.38-11.71,8.67-27.72,8.73-27.88a4.48,4.48,0,1,1,8.51,2.82c-.05.15-4.61,13.94-7.92,25.16A126.25,126.25,0,0,1,182,230.78a4.48,4.48,0,0,1-4,6.55Z"/><polygon class="cls-3" points="185.45 240.93 150.66 240.93 169.1 230.47 184.55 231.07 185.45 240.93"/><ellipse class="cls-3" cx="174.68" cy="175.03" rx="30.04" ry="24.9" transform="translate(-44.26 60.08) rotate(-17.36)"/><path class="cls-3" d="M95.54,158.67A4.49,4.49,0,0,1,93.82,150a5,5,0,0,0,3-3.77,4.49,4.49,0,0,1,3.67-4,31,31,0,0,0,3.3-.85c6.08-1.77,13.61-4,37.31,2.67,23.38-13.08,23.65-37.6,23.65-38.66a4.49,4.49,0,0,1,4.47-4.49h0a4.48,4.48,0,0,1,4.49,4.45c0,1.3-.14,32.08-30,47.5a4.5,4.5,0,0,1-3.3.32c-22.6-6.53-29-4.67-34.07-3.17l-1.38.39a13.83,13.83,0,0,1-7.64,7.89A4.36,4.36,0,0,1,95.54,158.67Z"/><path class="cls-2" d="M148,126.58C139.46,92.76,116.79,5.52,189.44.19c65.17-4.78,83.06,82,87.41,112A351.39,351.39,0,0,1,280.39,158a33.31,33.31,0,0,1-26.76,33c-35.51,7.21-69.12,8.24-91.75-.7a14.85,14.85,0,0,1-9.23-15.2C153.52,165.43,153.54,148.72,148,126.58Z"/><path class="cls-4" d="M276.85,112.21c-4.1-28.32-20.22-107-76.66-112a16.42,16.42,0,0,0-16.08,8.52c-2.51,4.87-2.43,10.79,1.34,16.63,12.44,19.29,42.1,86,37.62,122.29-2,16.53-12.4,29.73-3.38,48.31a291.16,291.16,0,0,0,33.94-5,33.29,33.29,0,0,0,26.76-33A351.65,351.65,0,0,0,276.85,112.21Z"/><path class="cls-3" d="M267.13,158.48a.44.44,0,0,1-.45-.44,350.44,350.44,0,0,0-3.53-45.76C252.35,37.63,223.28-.13,179.05,3.13a.45.45,0,0,1-.48-.41.46.46,0,0,1,.42-.49C223.74-1.07,253.16,37,264,112.15A352.28,352.28,0,0,1,267.58,158a.45.45,0,0,1-.45.45Z"/><ellipse class="cls-3" cx="259.01" cy="177.42" rx="30.04" ry="24.9" transform="translate(-41.14 85.35) rotate(-17.36)"/><path class="cls-2" d="M269.18,237.33a4.48,4.48,0,0,1-4-2.43c-4-7.76-9.07-16.87-18.16-26.73a4.49,4.49,0,0,1-1-4.28c3.38-11.71,8.67-27.72,8.73-27.88a4.48,4.48,0,1,1,8.51,2.82c0,.15-4.61,13.94-7.92,25.16a125.78,125.78,0,0,1,17.81,26.79,4.48,4.48,0,0,1-4,6.55Z"/><path class="cls-3" d="M259.76,100.6a4.49,4.49,0,0,1-2.1-8.45h0c.87-.46,20.4-11.14,25.88-36.77-13-5.45-36.42-17.74-41.54-23.92a4.57,4.57,0,0,1-1-2.08,22.33,22.33,0,0,1,1-11l-2.36-4.56a4.49,4.49,0,0,1,8-4.13L251,16.25a4.49,4.49,0,0,1-.17,4.43,11,11,0,0,0-1.12,5.91c5.76,5.21,29,17.55,40.43,21.77a4.49,4.49,0,0,1,2.87,4.9C288,86,262.91,99.53,261.85,100.08A4.49,4.49,0,0,1,259.76,100.6Z"/><path class="cls-3" d="M245.45,30.84a2.28,2.28,0,0,1-1.22-.36,2.24,2.24,0,0,1-.65-3.11c.15-.23,3.86-5.83,9.5-7.34a2.24,2.24,0,1,1,1.16,4.33c-3.94,1.06-6.88,5.42-6.91,5.47A2.25,2.25,0,0,1,245.45,30.84Z"/><polygon class="cls-3" points="276.66 240.93 241.87 240.93 260.3 230.47 275.76 231.07 276.66 240.93"/><ellipse class="cls-5" cx="201.9" cy="85.52" rx="23.92" ry="21.53" transform="translate(-6.75 18.13) rotate(-5.06)"/><ellipse class="cls-3" cx="196.07" cy="87.61" rx="6.57" ry="11.96" transform="translate(-16.5 57.08) rotate(-15.9)"/><path class="cls-3" d="M174.68,89.55c15.11-1.94,45-10.46,49.94-13.9-3.88-11.37-22-21.08-38.12-15.61C171.92,65,174.68,89.55,174.68,89.55Z"/><path class="cls-3" d="M177.62,96.85c18.74-3.56,43.12-9.54,50.09-13.37-.43,12.23-4,24.61-23.12,28.8C189,115.7,177.62,96.85,177.62,96.85Z"/><ellipse class="cls-5" cx="151.9" cy="93.05" rx="14.72" ry="18.63" transform="translate(-26.13 99.27) rotate(-33.49)"/><path class="cls-3" d="M152.23,93.37c1.13,5.36.15,9.83-2.2,10s-5.17-4.06-6.31-9.41-.16-9.83,2.19-10S151.09,88,152.23,93.37Z"/><path class="cls-3" d="M133.64,91.32c10.13,1.2,30.25-.14,33.59-2-2.47-9.7-14.45-20.67-25.34-19.26C132.07,71.36,133.64,91.32,133.64,91.32Z"/><path class="cls-3" d="M135.52,97.63c12.59.58,29,.26,33.68-1.52-.43,9.61-2.95,18.78-15.81,18.62C142.88,114.61,135.52,97.63,135.52,97.63Z"/><path class="cls-3" d="M208,54a56.39,56.39,0,0,1-32.06-9.8A4.48,4.48,0,0,1,181.33,37a49,49,0,0,0,35.84,7.11A4.48,4.48,0,1,1,218.84,53,57.57,57.57,0,0,1,208,54Z"/><path class="cls-3" d="M127.77,46.26a4.49,4.49,0,0,1-4.22-6c2.37-6.62,6.32-10.92,11.72-12.78,9.78-3.37,20.32,3.19,20.77,3.47a4.48,4.48,0,0,1-4.78,7.59c-2-1.27-8.38-4.21-13.1-2.56-2.73.94-4.74,3.34-6.17,7.31A4.49,4.49,0,0,1,127.77,46.26Z"/><path class="cls-3" d="M163.12,121.94a1.57,1.57,0,0,1-.37,0,1.35,1.35,0,0,1-.93-1.65,8.86,8.86,0,0,1,4.57-4.93c5.14-2.65,13-2.1,23.31,1.64a1.35,1.35,0,0,1-.92,2.53c-11.83-4.29-18-3.36-21.05-1.83a6.29,6.29,0,0,0-3.32,3.33A1.35,1.35,0,0,1,163.12,121.94Z"/><path class="cls-2" d="M120.77,117A119.53,119.53,0,0,0,76,130.16c7.73-1.46,35.36,32.73,42.46,59.1,13.11-4.86,28.38-8.17,44.68-10.75C153.25,151.33,135.2,120.55,120.77,117Z"/><path class="cls-6" d="M120.77,117A119.53,119.53,0,0,0,76,130.16c7.73-1.46,35.36,32.73,42.46,59.1,13.11-4.86,28.38-8.17,44.68-10.75C153.25,151.33,135.2,120.55,120.77,117Z"/><path class="cls-2" d="M120.77,117C103.69,115.08,76,129.38,76,129.38c-4.91,3.14-3.58,9-.9,11.49,2.57-3.69,31.23-13.29,42-14.58C111.71,121.33,116.69,117.74,120.77,117Z"/><path class="cls-7" d="M120.77,117C103.69,115.08,76,129.38,76,129.38c-4.91,3.14-3.58,9-.9,11.49,2.57-3.69,31.23-13.29,42-14.58C111.71,121.33,116.69,117.74,120.77,117Z"/><path class="cls-3" d="M95.54,158.67a4.48,4.48,0,0,1-3.76-2c-3.25-5-1.22-12.59-.78-14.06a4.49,4.49,0,1,1,8.6,2.56c-.73,2.51-.88,5.71-.3,6.6a4.48,4.48,0,0,1-1.31,6.2A4.38,4.38,0,0,1,95.54,158.67Z"/></g></g></svg>